<svg width="7" height="15" viewBox="0 0 7 15" fill="none" xmlns="http://www.w3.org/2000/svg">
<path d="M2.46872 1.9998C2.69272 2.3598 2.90272 2.7398 3.11272 3.1398C3.32272 3.53981 3.51406 3.9498 3.71472 4.3598C3.91539 4.76981 4.08339 5.1698 4.28406 5.60981C4.48472 6.0498 4.64339 6.50981 4.80206 6.9998C4.82966 7.08294 4.84927 7.17701 4.85976 7.27653C4.87024 7.37606 4.8714 7.47906 4.86315 7.57954C4.8549 7.68003 4.83741 7.776 4.8117 7.86188C4.78599 7.94776 4.75257 8.02184 4.71339 8.0798C4.65242 8.17056 4.57996 8.2192 4.50572 8.2192C4.43149 8.2192 4.35903 8.17056 4.29806 8.0798C4.08339 7.7298 3.85939 7.3398 3.64939 6.9998C3.43939 6.65981 3.24806 6.1898 3.05206 5.7698C2.85606 5.3498 2.68339 4.8698 2.48739 4.4198C2.29139 3.9698 2.12805 3.5198 1.96472 2.9998C1.93141 2.85142 1.92117 2.68405 1.93551 2.52229C1.94985 2.36053 1.98802 2.21287 2.0444 2.10099C2.10078 1.98913 2.17242 1.91894 2.24879 1.90072C2.32516 1.88251 2.40224 1.91723 2.46872 1.9998Z" fill="black"/>
<path d="M4.8019 7.99964C4.63913 8.47903 4.46467 8.93967 4.27923 9.37964C4.09723 9.82964 3.90123 10.2496 3.71457 10.6796C3.5279 11.1096 3.3179 11.5096 3.11723 11.9097C2.91657 12.3096 2.68323 12.6897 2.46856 12.9996C2.43005 13.0593 2.38639 13.102 2.34013 13.1252C2.29386 13.1485 2.24591 13.1518 2.19903 13.1351C2.15216 13.1184 2.1073 13.0818 2.06705 13.0277C2.02681 12.9735 1.99197 12.9028 1.96456 12.8196C1.92243 12.6869 1.8999 12.5301 1.8999 12.3696C1.8999 12.2091 1.92243 12.0524 1.96456 11.9196C2.12323 11.4297 2.30523 10.9797 2.48256 10.5296C2.6599 10.0796 2.86057 9.65963 3.0519 9.23963C3.24323 8.81963 3.4439 8.40964 3.6539 8.01964C3.8639 7.62964 4.08323 7.27964 4.2979 6.91964C4.36705 6.80531 4.45327 6.74886 4.54043 6.76086C4.62759 6.77285 4.70973 6.85247 4.77149 6.9848C4.83325 7.11714 4.87039 7.29316 4.87599 7.47993C4.88159 7.6667 4.85525 7.85146 4.8019 7.99964Z" fill="black"/>
</svg>
